<?xml version="1.0" standalone="no"?>
<!DOCTYPE svg PUBLIC "-//W3C//DTD SVG 20010904//EN"
 "http://www.w3.org/TR/2001/REC-SVG-20010904/DTD/svg10.dtd">
<svg version="1.0" xmlns="http://www.w3.org/2000/svg"
 width="391.000000pt" height="133.000000pt" viewBox="0 0 391.000000 133.000000"
 preserveAspectRatio="xMidYMid meet">

<g transform="translate(0.000000,133.000000) scale(0.100000,-0.100000)"
fill="#000000" stroke="none">
<path d="M205 1141 c-3 -2 -5 -235 -5 -518 l0 -513 523 2 522 3 3 350 c1 192
0 356 -3 363 -3 7 -28 -12 -65 -50 l-61 -63 1 -225 c0 -124 1 -233 0 -243 0
-16 -24 -17 -397 -15 l-398 3 0 390 0 390 265 5 265 5 54 52 c30 29 52 55 49
58 -7 7 -747 13 -753 6z"/>
<path d="M1630 814 c0 -7 -25 -186 -39 -284 -6 -36 -13 -92 -16 -125 -9 -86
-13 -95 -41 -95 l-25 0 3 -98 3 -97 34 -3 c61 -6 79 4 83 46 l3 37 125 0 125
0 5 -40 5 -40 55 0 55 0 3 97 c3 94 2 97 -20 100 l-23 3 -5 250 -5 250 -162 3
c-90 1 -163 0 -163 -4z m204 -130 c3 -9 6 -91 6 -184 0 -131 -3 -170 -14 -179
-15 -13 -117 -13 -137 0 -10 6 -10 24 -1 86 6 43 16 119 22 168 16 130 14 125
70 125 34 0 50 -4 54 -16z"/>
<path d="M2080 808 c-1 -7 -1 -146 -1 -308 l0 -295 63 0 63 0 81 178 c45 98
85 178 90 178 5 -1 11 -83 14 -183 l5 -183 55 0 55 0 3 313 2 312 -60 0 -60 0
-36 -77 c-91 -199 -128 -278 -131 -282 -2 -3 -9 1 -15 7 -8 8 -12 67 -14 174
-1 90 -2 166 -3 171 -2 13 -111 8 -111 -5z"/>
<path d="M2600 515 c0 -294 1 -305 20 -315 13 -7 86 -10 203 -8 l182 3 3 313
2 312 -205 0 -205 0 0 -305z m294 169 c3 -9 6 -91 6 -184 0 -122 -3 -170 -12
-178 -18 -14 -138 -15 -154 -1 -11 9 -14 50 -14 179 0 93 3 175 6 184 9 23
159 23 168 0z"/>
<path d="M3112 508 l3 -313 34 -3 c19 -2 44 -1 57 2 l24 6 0 195 c0 180 1 195
18 195 10 0 26 -16 37 -37 54 -104 105 -174 105 -145 0 4 22 45 50 92 27 47
52 89 54 95 2 6 9 5 17 -2 10 -10 12 -54 10 -190 -1 -98 1 -186 4 -196 6 -13
19 -17 55 -17 48 0 67 12 64 40 -1 8 -2 144 -3 303 l-1 287 -59 0 -59 0 -28
-47 c-32 -54 -48 -81 -83 -142 -14 -23 -30 -40 -35 -38 -6 2 -40 54 -76 115
l-65 112 -62 0 -63 0 2 -312z"/>
</g>
</svg>
