<svg width="308" height="95" viewBox="0 0 308 95" fill="none" xmlns="http://www.w3.org/2000/svg">
<rect x="62" y="2" width="246" height="93" rx="5" fill="black"/>
<path d="M222.76 25.52C223.347 23.8133 224.013 22.6933 224.76 22.16C225.507 21.5733 226.36 21.28 227.32 21.28C228.067 21.28 228.653 21.4933 229.08 21.92C229.56 22.2933 229.8 22.8 229.8 23.44C229.8 24.08 229.667 24.7467 229.4 25.44L211.96 74.8C211.213 76.9333 209.533 78 206.92 78C205.853 78 204.867 77.7867 203.96 77.36C203.053 76.88 202.44 76.1333 202.12 75.12L184.92 26C184.707 25.4133 184.6 24.8267 184.6 24.24C184.6 23.3867 184.867 22.6933 185.4 22.16C185.987 21.5733 186.867 21.28 188.04 21.28C190.76 21.28 192.6 22.6933 193.56 25.52L207.8 68.96H208.28L222.76 25.52Z" fill="white"/>
<path d="M246 25.28C246 23.84 246.267 22.8267 246.8 22.24C247.333 21.6 248.24 21.28 249.52 21.28H264.64C270.773 21.28 275.68 22.4267 279.36 24.72C283.04 26.96 284.88 30.96 284.88 36.72C284.88 39.3333 284.187 41.7333 282.8 43.92C281.467 46.1067 279.707 47.8933 277.52 49.28C275.387 50.6667 273.173 51.5467 270.88 51.92L284.16 73.28C284.64 73.9733 284.88 74.6667 284.88 75.36C284.88 76.16 284.533 76.8 283.84 77.28C283.147 77.76 282.133 78 280.8 78C279.733 78 278.72 77.76 277.76 77.28C276.8 76.8 276 76.0267 275.36 74.96L261.92 52.48H254.64V72.8C254.64 74.6667 254.24 76 253.44 76.8C252.64 77.6 251.387 78 249.68 78C248.453 78 247.52 77.68 246.88 77.04C246.293 76.4 246 75.3867 246 74V25.28ZM254.64 48.24H263.2C266.507 48.24 269.44 47.28 272 45.36C274.56 43.3867 275.84 40.3467 275.84 36.24C275.84 31.8667 274.667 28.9867 272.32 27.6C269.973 26.2133 267.147 25.52 263.84 25.52H254.64V48.24Z" fill="white"/>
<path d="M118.44 63.04C119.613 63.04 120.467 63.36 121 64C121.587 64.64 121.88 65.6533 121.88 67.04V75.44C121.88 76.3467 121.48 77.0133 120.68 77.44C119.88 77.8133 118.68 78 117.08 78H90.68C89.4533 78 88.52 77.68 87.88 77.04C87.2933 76.4 87 75.3867 87 74V25.28C87 23.84 87.2667 22.8267 87.8 22.24C88.3333 21.6 89.24 21.28 90.52 21.28C92.1733 21.28 93.4267 21.8133 94.28 22.88C95.1867 23.8933 95.64 25.4133 95.64 27.44V73.76H113.8V68.24C113.8 66.3733 114.173 65.04 114.92 64.24C115.72 63.44 116.893 63.04 118.44 63.04Z" fill="white"/>
<path d="M141.24 73.76C140.6 75.4667 139.853 76.6133 139 77.2C138.2 77.7333 137.32 78 136.36 78C135.613 78 135.053 77.8133 134.68 77.44C134.36 77.0133 134.2 76.48 134.2 75.84C134.2 75.2 134.333 74.5333 134.6 73.84L153.4 23.2C153.613 22.6133 154.12 22.16 154.92 21.84C155.773 21.4667 156.733 21.28 157.8 21.28C158.973 21.28 160.013 21.4667 160.92 21.84C161.88 22.2133 162.467 22.7467 162.68 23.44L181 74.16C181.107 74.6933 181.16 75.0933 181.16 75.36C181.16 76.1067 180.893 76.7467 180.36 77.28C179.88 77.76 179.107 78 178.04 78C176.92 78 175.773 77.7067 174.6 77.12C173.48 76.5333 172.627 75.4133 172.04 73.76L167.8 62.8H145.32L141.24 73.76ZM156.92 30.72H156.44L146.6 58.64H166.6L156.92 30.72Z" fill="white"/>
<path d="M39.44 63.04C40.6133 63.04 41.4667 63.36 42 64C42.5867 64.64 42.88 65.6533 42.88 67.04V75.44C42.88 76.3467 42.48 77.0133 41.68 77.44C40.88 77.8133 39.68 78 38.08 78H11.68C10.4533 78 9.52 77.68 8.88 77.04C8.29333 76.4 8 75.3867 8 74V25.28C8 23.84 8.26667 22.8267 8.8 22.24C9.33333 21.6 10.24 21.28 11.52 21.28C13.1733 21.28 14.4267 21.8133 15.28 22.88C16.1867 23.8933 16.64 25.4133 16.64 27.44V73.76H34.8V68.24C34.8 66.3733 35.1733 65.04 35.92 64.24C36.72 63.44 37.8933 63.04 39.44 63.04Z" fill="black"/>
</svg>
